<svg xmlns="http://www.w3.org/2000/svg" viewBox="0 0 64 64" id="Reward"><path fill="#80ddff" d="m7 14 5-5H9V2H5v7H2zM57 14l5-5h-3V2h-4v7h-3z" class="colorff8088 svgShape"></path><path fill="#83cbe6" d="M25 39h-2a1 1 0 0 0-1 1v5.172a2 2 0 0 1-.586 1.414L17 51H6a4 4 0 0 0-4 4v8h15v-7l2.407-.802a2.01 2.01 0 0 0 .968-.697l4.825-6.434c.519-.692.8-1.535.8-2.4V40a1 1 0 0 0-1-1z" class="color83ade6 svgShape"></path><circle cx="11" cy="46" r="5" fill="#83cbe6" class="color83ade6 svgShape"></circle><path fill="#0eb5f3" d="M11 51c1.2 0 2.287-.44 3.149-1.145A5.008 5.008 0 0 1 13 50a5 5 0 0 1-5-5c0-1.561.73-2.938 1.851-3.855C7.646 41.666 6 43.636 6 46a5 5 0 0 0 5 5z" class="color7499cc svgShape"></path><path fill="#83cbe6" d="M39 39h2a1 1 0 0 1 1 1v5.172a2 2 0 0 0 .586 1.414L47 51h11a4 4 0 0 1 4 4v8H47v-7l-2.407-.802a2.01 2.01 0 0 1-.968-.697L38.8 48.067a4.002 4.002 0 0 1-.8-2.4V40a1 1 0 0 1 1-1z" class="color83ade6 svgShape"></path><circle cx="53" cy="46" r="5" fill="#83cbe6" class="color83ade6 svgShape"></circle><path fill="#0eb5f3" d="M53 51c-1.2 0-2.287-.44-3.149-1.145.371.087.752.145 1.149.145a5 5 0 0 0 5-5c0-1.561-.73-2.938-1.851-3.855C56.354 41.666 58 43.636 58 46a5 5 0 0 1-5 5z" class="color7499cc svgShape"></path><path fill="#90e1ff" d="m21 19 2.163 4.609 4.837.739-3.5 3.587.826 5.065L21 30.609 16.674 33l.826-5.065-3.5-3.587 4.837-.739z" class="colorffe990 svgShape"></path><circle cx="42" cy="27" r="8" fill="#5ed0fa" class="colorfada5e svgShape"></circle><path d="M5.323 54.736h2v8h-2z" fill="#000000" class="color000000 svgShape"></path><path d="M25.323 37.736h-2c-1.103 0-2 .897-2 2v5.172c0 .263-.107.521-.293.707l-4.121 4.121h-1.126a5.97 5.97 0 0 0 1.54-4c0-3.309-2.691-6-6-6s-6 2.691-6 6a5.97 5.97 0 0 0 1.54 4h-.54c-2.757 0-5 2.243-5 5v8h2v-8c0-1.654 1.346-3 3-3h11c.265 0 .52-.105.707-.293l4.414-4.414c.567-.566.879-1.32.879-2.121v-5.172h2v5.667a3.02 3.02 0 0 1-.6 1.8l-4.825 6.433a.999.999 0 0 1-.484.35l-2.407.803a1 1 0 0 0-.684.948v7h2v-6.279l1.722-.574a2.975 2.975 0 0 0 1.453-1.047l4.826-6.434c.645-.859 1-1.925 1-2.999v-5.667a2.004 2.004 0 0 0-2.001-2.001zm-14 12c-2.206 0-4-1.794-4-4s1.794-4 4-4 4 1.794 4 4-1.795 4-4 4zM57.323 54.736h2v8h-2z" fill="#000000" class="color000000 svgShape"></path><path d="M58.323 49.736h-.54a5.97 5.97 0 0 0 1.54-4c0-3.309-2.691-6-6-6s-6 2.691-6 6a5.97 5.97 0 0 0 1.54 4h-1.126l-4.121-4.121a1.01 1.01 0 0 1-.293-.707v-5.172c0-1.103-.897-2-2-2h-2c-1.103 0-2 .897-2 2v5.667c0 1.074.355 2.14 1 2.999l4.825 6.435a2.98 2.98 0 0 0 1.451 1.045l1.724.575v6.279h2v-7a.998.998 0 0 0-.684-.948l-2.409-.804a.993.993 0 0 1-.482-.348l-4.825-6.434a3.02 3.02 0 0 1-.6-1.8v-5.667h2v5.172c0 .801.312 1.555.879 2.121l4.414 4.414a1 1 0 0 0 .707.293h11c1.654 0 3 1.346 3 3v8h2v-8a5.006 5.006 0 0 0-5-4.999zm-5 0c-2.206 0-4-1.794-4-4s1.794-4 4-4 4 1.794 4 4-1.795 4-4 4zm-24.85-26.641-4.309-.659-1.937-4.125a.999.999 0 0 0-1.81 0l-1.937 4.125-4.309.659a.999.999 0 0 0-.565 1.687l3.147 3.226-.745 4.567a1 1 0 0 0 1.471 1.037l3.842-2.124 3.842 2.124a.995.995 0 0 0 1.06-.058 1 1 0 0 0 .411-.979l-.745-4.567 3.147-3.226c.262-.269.352-.66.232-1.016s-.424-.614-.795-.671zm-4.366 3.877a.999.999 0 0 0-.271.859l.495 3.033-2.524-1.396a1 1 0 0 0-.968 0l-2.524 1.396.495-3.033a.998.998 0 0 0-.271-.859l-2.141-2.194 2.913-.445a.998.998 0 0 0 .754-.563l1.258-2.68 1.258 2.68a.996.996 0 0 0 .754.563l2.913.445-2.141 2.194zm27.216-.236c0-4.963-4.038-9-9-9s-9 4.037-9 9 4.038 9 9 9 9-4.037 9-9zm-16 0c0-3.859 3.14-7 7-7s7 3.141 7 7-3.14 7-7 7-7-3.141-7-7z" fill="#000000" class="color000000 svgShape"></path><path d="M43.323 32.736v-1.184a2.996 2.996 0 0 0 2-2.816c0-1.654-1.346-3-3-3a1.001 1.001 0 0 1 0-2c.551 0 1 .448 1 1h2a2.996 2.996 0 0 0-2-2.816v-1.184h-2v1.184a2.996 2.996 0 0 0-2 2.816c0 1.654 1.346 3 3 3a1.001 1.001 0 1 1-1 1h-2c0 1.302.839 2.402 2 2.816v1.184h2zM13.246 8.353a1 1 0 0 0-.924-.617h-2v-6a1 1 0 0 0-1-1h-4a1 1 0 0 0-1 1v6h-2a1 1 0 0 0-.707 1.707l5 5a.997.997 0 0 0 1.414 0l5-5a.998.998 0 0 0 .217-1.09zm-5.923 3.969L4.737 9.736h.586a1 1 0 0 0 1-1v-6h2v6a1 1 0 0 0 1 1h.586l-2.586 2.586zm55.923-3.969a1 1 0 0 0-.924-.617h-2v-6a1 1 0 0 0-1-1h-4a1 1 0 0 0-1 1v6h-2a1 1 0 0 0-.707 1.707l5 5a.997.997 0 0 0 1.414 0l5-5a.998.998 0 0 0 .217-1.09zm-5.923 3.969-2.586-2.586h.586a1 1 0 0 0 1-1v-6h2v6a1 1 0 0 0 1 1h.586l-2.586 2.586zM31.323 1.736h2v2h-2zM22.323 7.736h2v2h-2zM29.323 14.736h2v2h-2zM44.323 10.736h2v2h-2zM37.323 7.736h2v2h-2zM59.323 19.736h2v2h-2zM55.323 24.736h2v2h-2zM7.323 18.736h2v2h-2zM2.323 27.736h2v2h-2z" fill="#000000" class="color000000 svgShape"></path></svg>