<svg xmlns="http://www.w3.org/2000/svg" viewBox="0 0 48 48" id="Revenue"><path d="M45.71,40.71l-3,3-1.42-1.42L42.59,41H6a1,1,0,0,1-1-1V11.41l-1.29,1.3L2.29,11.29l3-3a1,1,0,0,1,1.42,0l3,3L8.29,12.71,7,11.41V39H9V32a1,1,0,0,1,1-1h4a1,1,0,0,1,1,1v7h2V26a1,1,0,0,1,1-1h4a1,1,0,0,1,1,1V39h2V21a1,1,0,0,1,1-1h4a1,1,0,0,1,1,1V39h2V17a1,1,0,0,1,1-1h4a1,1,0,0,1,1,1V39h3.59l-1.3-1.29,1.42-1.42,3,3A1,1,0,0,1,45.71,40.71ZM35,14h2V13h1a1,1,0,0,0,1-1V9a1,1,0,0,0-1-1H35V7h4V5H37V4H35V5H34a1,1,0,0,0-1,1V9a1,1,0,0,0,1,1h3v1H33v2h2Z" data-name="60 Revenue, Analysis, Bar Chart, Income, Increase, Money" fill="#0eb5f3" class="color000000 svgShape"></path></svg>